<mxfile host="app.diagrams.net" agent="Mozilla/5.0 (Windows NT 10.0; Win64; x64) AppleWebKit/537.36 (KHTML, like Gecko) Chrome/131.0.0.0 Safari/537.36 Edg/131.0.0.0" version="27.1.6">
  <diagram name="Seite-1" id="msd6V1_gz_iGtyk8-olI">
    <mxGraphModel dx="1693" dy="917" grid="1" gridSize="10" guides="1" tooltips="1" connect="1" arrows="1" fold="1" page="1" pageScale="1" pageWidth="827" pageHeight="1169" math="0" shadow="0">
      <root>
        <mxCell id="0" />
        <mxCell id="1" parent="0" />
        <mxCell id="a2AiSiptxMP1pDzw4al3-1" value="" style="rounded=1;whiteSpace=wrap;html=1;arcSize=5;fillColor=none;fontFamily=Helvetica;" vertex="1" parent="1">
          <mxGeometry x="80" y="342" width="800" height="168" as="geometry" />
        </mxCell>
        <mxCell id="a2AiSiptxMP1pDzw4al3-2" value="" style="rounded=1;whiteSpace=wrap;html=1;arcSize=5;fillColor=none;fontFamily=Helvetica;" vertex="1" parent="1">
          <mxGeometry x="80" y="52" width="800" height="270" as="geometry" />
        </mxCell>
        <mxCell id="a2AiSiptxMP1pDzw4al3-3" value="a" style="ellipse;whiteSpace=wrap;html=1;aspect=fixed;fillColor=default;fontSize=14;fontFamily=Helvetica;" vertex="1" parent="1">
          <mxGeometry x="60" y="40" width="38" height="38" as="geometry" />
        </mxCell>
        <mxCell id="a2AiSiptxMP1pDzw4al3-4" style="edgeStyle=orthogonalEdgeStyle;rounded=0;orthogonalLoop=1;jettySize=auto;html=1;exitX=1;exitY=0.5;exitDx=0;exitDy=0;entryX=0;entryY=0.5;entryDx=0;entryDy=0;fontFamily=Helvetica;" edge="1" parent="1" source="a2AiSiptxMP1pDzw4al3-5" target="a2AiSiptxMP1pDzw4al3-8">
          <mxGeometry relative="1" as="geometry" />
        </mxCell>
        <mxCell id="a2AiSiptxMP1pDzw4al3-5" value="INT21 Text Passage" style="rounded=1;html=1;perimeterSpacing=0;arcSize=50;whiteSpace=wrap;fontFamily=Helvetica;spacingTop=0;spacingBottom=0;spacing=2;fillColor=#dae8fc;strokeColor=#6c8ebf;fontSize=12;" vertex="1" parent="1">
          <mxGeometry x="259.5" y="157" width="120" height="60" as="geometry" />
        </mxCell>
        <mxCell id="a2AiSiptxMP1pDzw4al3-6" style="edgeStyle=orthogonalEdgeStyle;rounded=0;orthogonalLoop=1;jettySize=auto;html=1;entryX=0;entryY=0.5;entryDx=0;entryDy=0;" edge="1" parent="1" source="a2AiSiptxMP1pDzw4al3-8" target="a2AiSiptxMP1pDzw4al3-19">
          <mxGeometry relative="1" as="geometry">
            <mxPoint x="610" y="187" as="targetPoint" />
          </mxGeometry>
        </mxCell>
        <mxCell id="a2AiSiptxMP1pDzw4al3-7" value="R21 identifies" style="edgeLabel;html=1;align=center;verticalAlign=middle;resizable=0;points=[];" connectable="0" vertex="1" parent="a2AiSiptxMP1pDzw4al3-6">
          <mxGeometry x="-0.0081" y="2" relative="1" as="geometry">
            <mxPoint x="-7" y="52" as="offset" />
          </mxGeometry>
        </mxCell>
        <mxCell id="a2AiSiptxMP1pDzw4al3-8" value="INT2 Actualization of Feature" style="rounded=1;html=1;perimeterSpacing=0;arcSize=50;whiteSpace=wrap;fontFamily=Helvetica;spacingTop=0;spacingBottom=0;spacing=2;fillColor=#dae8fc;strokeColor=#6c8ebf;fontSize=11.5;" vertex="1" parent="1">
          <mxGeometry x="419.5" y="157" width="120" height="60" as="geometry" />
        </mxCell>
        <mxCell id="a2AiSiptxMP1pDzw4al3-9" style="edgeStyle=orthogonalEdgeStyle;rounded=0;orthogonalLoop=1;jettySize=auto;html=1;exitX=1;exitY=0.5;exitDx=0;exitDy=0;entryX=0;entryY=0.5;entryDx=0;entryDy=0;fontFamily=Helvetica;" edge="1" parent="1" source="a2AiSiptxMP1pDzw4al3-10" target="a2AiSiptxMP1pDzw4al3-5">
          <mxGeometry relative="1" as="geometry" />
        </mxCell>
        <mxCell id="a2AiSiptxMP1pDzw4al3-10" value="F2 Expression" style="rounded=1;html=1;perimeterSpacing=0;arcSize=50;whiteSpace=wrap;fontFamily=Helvetica;spacingTop=0;spacingBottom=0;spacing=2;fillColor=#fff2cc;strokeColor=#d6b656;fontSize=12;" vertex="1" parent="1">
          <mxGeometry x="99.5" y="157" width="120" height="60" as="geometry" />
        </mxCell>
        <mxCell id="a2AiSiptxMP1pDzw4al3-11" value="R30 has text passage" style="edgeLabel;html=1;align=center;verticalAlign=middle;resizable=0;points=[];fontFamily=Helvetica;" connectable="0" vertex="1" parent="1">
          <mxGeometry x="229.5" y="237" as="geometry" />
        </mxCell>
        <mxCell id="a2AiSiptxMP1pDzw4al3-12" value="R18 shows actualization" style="edgeLabel;html=1;align=center;verticalAlign=middle;resizable=0;points=[];fontFamily=Helvetica;" connectable="0" vertex="1" parent="1">
          <mxGeometry x="399.5" y="237" as="geometry" />
        </mxCell>
        <mxCell id="a2AiSiptxMP1pDzw4al3-13" value="F2 Expression" style="rounded=1;html=1;perimeterSpacing=0;arcSize=50;whiteSpace=wrap;fontFamily=Helvetica;spacingTop=0;spacingBottom=0;spacing=2;fillColor=#fff2cc;strokeColor=#d6b656;fontSize=12;" vertex="1" parent="1">
          <mxGeometry x="728" y="70" width="120" height="60" as="geometry" />
        </mxCell>
        <mxCell id="a2AiSiptxMP1pDzw4al3-14" value="F2 Expression" style="rounded=1;html=1;perimeterSpacing=0;arcSize=50;whiteSpace=wrap;fontFamily=Helvetica;spacingTop=0;spacingBottom=0;spacing=2;fillColor=#fff2cc;strokeColor=#d6b656;fontSize=12;" vertex="1" parent="1">
          <mxGeometry x="728" y="242" width="120" height="60" as="geometry" />
        </mxCell>
        <mxCell id="a2AiSiptxMP1pDzw4al3-15" style="edgeStyle=orthogonalEdgeStyle;rounded=0;orthogonalLoop=1;jettySize=auto;html=1;exitX=0.5;exitY=0;exitDx=0;exitDy=0;entryX=0;entryY=0.5;entryDx=0;entryDy=0;" edge="1" parent="1" source="a2AiSiptxMP1pDzw4al3-19" target="a2AiSiptxMP1pDzw4al3-13">
          <mxGeometry relative="1" as="geometry" />
        </mxCell>
        <mxCell id="a2AiSiptxMP1pDzw4al3-16" value="R13 has referring entity" style="edgeLabel;html=1;align=center;verticalAlign=middle;resizable=0;points=[];" connectable="0" vertex="1" parent="a2AiSiptxMP1pDzw4al3-15">
          <mxGeometry x="-0.0487" y="-1" relative="1" as="geometry">
            <mxPoint y="30" as="offset" />
          </mxGeometry>
        </mxCell>
        <mxCell id="a2AiSiptxMP1pDzw4al3-17" style="edgeStyle=orthogonalEdgeStyle;rounded=0;orthogonalLoop=1;jettySize=auto;html=1;exitX=0.5;exitY=1;exitDx=0;exitDy=0;entryX=0;entryY=0.5;entryDx=0;entryDy=0;" edge="1" parent="1" source="a2AiSiptxMP1pDzw4al3-19" target="a2AiSiptxMP1pDzw4al3-14">
          <mxGeometry relative="1" as="geometry" />
        </mxCell>
        <mxCell id="a2AiSiptxMP1pDzw4al3-18" value="R12 has referred to entity" style="edgeLabel;html=1;align=center;verticalAlign=middle;resizable=0;points=[];" connectable="0" vertex="1" parent="a2AiSiptxMP1pDzw4al3-17">
          <mxGeometry x="-0.4428" y="1" relative="1" as="geometry">
            <mxPoint x="-1" y="-9" as="offset" />
          </mxGeometry>
        </mxCell>
        <mxCell id="a2AiSiptxMP1pDzw4al3-19" value="INT31 Intertextual Relation" style="rounded=1;html=1;perimeterSpacing=0;arcSize=50;whiteSpace=wrap;fontFamily=Helvetica;spacingTop=0;spacingBottom=0;spacing=2;fillColor=#dae8fc;strokeColor=#6c8ebf;fontSize=11.5;" vertex="1" parent="1">
          <mxGeometry x="617" y="157" width="120" height="60" as="geometry" />
        </mxCell>
        <mxCell id="a2AiSiptxMP1pDzw4al3-20" value="" style="endArrow=none;dashed=1;html=1;dashPattern=1 3;strokeWidth=2;rounded=0;" edge="1" parent="1">
          <mxGeometry width="50" height="50" relative="1" as="geometry">
            <mxPoint x="570" y="322" as="sourcePoint" />
            <mxPoint x="570" y="52" as="targetPoint" />
          </mxGeometry>
        </mxCell>
        <mxCell id="a2AiSiptxMP1pDzw4al3-21" value="Scholarly discourse" style="text;html=1;align=center;verticalAlign=middle;whiteSpace=wrap;rounded=0;" vertex="1" parent="1">
          <mxGeometry x="450" y="52" width="120" height="30" as="geometry" />
        </mxCell>
        <mxCell id="a2AiSiptxMP1pDzw4al3-22" value="Object domain" style="text;html=1;align=center;verticalAlign=middle;whiteSpace=wrap;rounded=0;" vertex="1" parent="1">
          <mxGeometry x="570" y="52" width="90" height="30" as="geometry" />
        </mxCell>
        <mxCell id="a2AiSiptxMP1pDzw4al3-23" value="b" style="ellipse;whiteSpace=wrap;html=1;aspect=fixed;fillColor=default;fontSize=14;fontFamily=Helvetica;" vertex="1" parent="1">
          <mxGeometry x="60" y="330" width="38" height="38" as="geometry" />
        </mxCell>
        <mxCell id="a2AiSiptxMP1pDzw4al3-24" style="edgeStyle=orthogonalEdgeStyle;rounded=0;orthogonalLoop=1;jettySize=auto;html=1;exitX=0;exitY=0.5;exitDx=0;exitDy=0;entryX=1;entryY=0.5;entryDx=0;entryDy=0;fontFamily=Helvetica;" edge="1" parent="1" source="a2AiSiptxMP1pDzw4al3-29" target="a2AiSiptxMP1pDzw4al3-26">
          <mxGeometry relative="1" as="geometry" />
        </mxCell>
        <mxCell id="a2AiSiptxMP1pDzw4al3-25" value="R18 shows actualization" style="edgeLabel;html=1;align=center;verticalAlign=middle;resizable=0;points=[];" connectable="0" vertex="1" parent="a2AiSiptxMP1pDzw4al3-24">
          <mxGeometry x="-0.1774" y="1" relative="1" as="geometry">
            <mxPoint y="37" as="offset" />
          </mxGeometry>
        </mxCell>
        <mxCell id="a2AiSiptxMP1pDzw4al3-26" value="INT2 Actualization of Feature" style="rounded=1;html=1;perimeterSpacing=0;arcSize=50;whiteSpace=wrap;fontFamily=Helvetica;spacingTop=0;spacingBottom=0;spacing=2;fillColor=#dae8fc;strokeColor=#6c8ebf;fontSize=11.5;" vertex="1" parent="1">
          <mxGeometry x="480" y="406" width="120" height="60" as="geometry" />
        </mxCell>
        <mxCell id="a2AiSiptxMP1pDzw4al3-27" style="edgeStyle=orthogonalEdgeStyle;rounded=0;orthogonalLoop=1;jettySize=auto;html=1;entryX=0;entryY=0.5;entryDx=0;entryDy=0;" edge="1" parent="1" source="a2AiSiptxMP1pDzw4al3-28" target="a2AiSiptxMP1pDzw4al3-26">
          <mxGeometry relative="1" as="geometry" />
        </mxCell>
        <mxCell id="a2AiSiptxMP1pDzw4al3-28" value="F2 Expression" style="rounded=1;html=1;perimeterSpacing=0;arcSize=50;whiteSpace=wrap;fontFamily=Helvetica;spacingTop=0;spacingBottom=0;spacing=2;fillColor=#fff2cc;strokeColor=#d6b656;fontSize=12;" vertex="1" parent="1">
          <mxGeometry x="200" y="406" width="120" height="60" as="geometry" />
        </mxCell>
        <mxCell id="a2AiSiptxMP1pDzw4al3-29" value="F2 Expression" style="rounded=1;html=1;perimeterSpacing=0;arcSize=50;whiteSpace=wrap;fontFamily=Helvetica;spacingTop=0;spacingBottom=0;spacing=2;fillColor=#fff2cc;strokeColor=#d6b656;fontSize=12;" vertex="1" parent="1">
          <mxGeometry x="638" y="406" width="120" height="60" as="geometry" />
        </mxCell>
        <mxCell id="a2AiSiptxMP1pDzw4al3-30" value="Scholarly discourse" style="text;html=1;align=center;verticalAlign=middle;whiteSpace=wrap;rounded=0;" vertex="1" parent="1">
          <mxGeometry x="280" y="342" width="120" height="30" as="geometry" />
        </mxCell>
        <mxCell id="a2AiSiptxMP1pDzw4al3-31" value="Object domain" style="text;html=1;align=center;verticalAlign=middle;whiteSpace=wrap;rounded=0;" vertex="1" parent="1">
          <mxGeometry x="400" y="342" width="90" height="30" as="geometry" />
        </mxCell>
        <mxCell id="a2AiSiptxMP1pDzw4al3-32" value="" style="endArrow=none;dashed=1;html=1;dashPattern=1 3;strokeWidth=2;rounded=0;" edge="1" parent="1">
          <mxGeometry width="50" height="50" relative="1" as="geometry">
            <mxPoint x="400" y="510" as="sourcePoint" />
            <mxPoint x="400" y="342" as="targetPoint" />
          </mxGeometry>
        </mxCell>
        <mxCell id="a2AiSiptxMP1pDzw4al3-33" value="R20 discusses" style="edgeLabel;html=1;align=center;verticalAlign=middle;resizable=0;points=[];" connectable="0" vertex="1" parent="a2AiSiptxMP1pDzw4al3-32">
          <mxGeometry x="-0.0016" y="2" relative="1" as="geometry">
            <mxPoint x="2" y="49" as="offset" />
          </mxGeometry>
        </mxCell>
      </root>
    </mxGraphModel>
  </diagram>
</mxfile>
